<?xml version="1.0" encoding="UTF-8" standalone="no"?>
<!-- Created with Inkscape (http://www.inkscape.org/) -->

<svg
   xmlns:dc="http://purl.org/dc/elements/1.1/"
   xmlns:cc="http://creativecommons.org/ns#"
   xmlns:rdf="http://www.w3.org/1999/02/22-rdf-syntax-ns#"
   xmlns:svg="http://www.w3.org/2000/svg"
   xmlns="http://www.w3.org/2000/svg"
   xmlns:sodipodi="http://sodipodi.sourceforge.net/DTD/sodipodi-0.dtd"
   xmlns:inkscape="http://www.inkscape.org/namespaces/inkscape"
   width="210mm"
   height="297mm"
   viewBox="0 0 210 297"
   version="1.1"
   id="svg86"
   inkscape:version="0.92.3 (2405546, 2018-03-11)"
   sodipodi:docname="LogoLF.svg">
  <defs
     id="defs80" />
  <sodipodi:namedview
     id="base"
     pagecolor="#ffffff"
     bordercolor="#666666"
     borderopacity="1.0"
     inkscape:pageopacity="0.0"
     inkscape:pageshadow="2"
     inkscape:zoom="0.35"
     inkscape:cx="400"
     inkscape:cy="472.54974"
     inkscape:document-units="mm"
     inkscape:current-layer="layer1"
     showgrid="false"
     inkscape:snap-text-baseline="true"
     inkscape:snap-to-guides="false"
     inkscape:snap-midpoints="true"
     inkscape:snap-page="true"
     inkscape:window-width="1440"
     inkscape:window-height="837"
     inkscape:window-x="1432"
     inkscape:window-y="-3"
     inkscape:window-maximized="1" />
  <metadata
     id="metadata83">
    <rdf:RDF>
      <cc:Work
         rdf:about="">
        <dc:format>image/svg+xml</dc:format>
        <dc:type
           rdf:resource="http://purl.org/dc/dcmitype/StillImage" />
        <dc:title></dc:title>
      </cc:Work>
    </rdf:RDF>
  </metadata>
  <g
     inkscape:label="Capa 1"
     inkscape:groupmode="layer"
     id="layer1">
    <text
       xml:space="preserve"
       style="font-style:normal;font-weight:normal;font-size:10.58333302px;line-height:1.25;font-family:sans-serif;letter-spacing:0px;word-spacing:0px;fill:#000000;fill-opacity:1;stroke:none;stroke-width:0.26458332"
       x="71.059525"
       y="204.7738"
       id="text92"><tspan
         sodipodi:role="line"
         id="tspan90"
         x="71.059525"
         y="204.7738"
         style="stroke-width:0.26458332">Desarrollos</tspan></text>
    <path
       id="path100"
       d="m 40.120564,80.93782 c 1.976731,3.909644 4.104643,7.758048 5.759101,11.84407 1.495986,3.694642 2.365465,6.635577 3.604405,10.46749 2.767103,8.61328 4.815425,17.50006 6.090801,26.50809 0.742043,5.24106 1.064152,9.51678 1.541648,14.78227 0.66983,10.13482 1.322186,20.27887 2.441339,30.37075 -0.43716,-2.17529 0.248801,2.68524 0.698757,2.11386 0.229674,-0.29165 0.484579,-1.28315 0.157443,-1.13213 -2.949646,1.36163 -5.517737,3.55611 -8.449987,4.96017 -0.602205,0.28836 0.893339,-1.0398 1.342752,-1.55698 0.545605,-0.62787 1.094857,-1.25209 1.642285,-1.87814 3.713953,-4.18719 7.557447,-8.26621 11.67412,-12.00078 4.672166,-3.8364 9.550024,-8.09859 15.319433,-9.68 1.299197,-0.35613 2.069653,-0.37933 3.420145,-0.52368 2.803998,0.0481 5.644803,-0.0639 8.410344,0.53287 0.354851,0.0766 4.231614,1.15956 4.570751,1.25381 4.424649,1.27781 8.218029,3.87532 11.638089,7.0665 1.95007,2.03575 3.69334,4.27348 5.56972,6.38365 0,0 -9.47945,6.17256 -9.47945,6.17256 v 0 c -1.80046,-2.11494 -3.48824,-4.33766 -5.38554,-6.35747 -3.31752,-3.06467 -7.040774,-5.46023 -11.321721,-6.63801 -1.238766,-0.33126 -3.247779,-0.89933 -4.519763,-1.11912 -2.734146,-0.47244 -5.547215,-0.40308 -8.300051,-0.24216 -1.379172,0.24323 -2.014249,0.28216 -3.307302,0.77511 -0.472305,0.18006 -1.804522,0.92763 -1.377969,0.64549 15.370426,-10.16625 7.977606,-5.19826 4.878412,-2.63305 -4.207823,3.58539 -8.034206,7.6855 -11.726818,11.86145 -5.129818,5.81561 -2.377749,4.17354 -13.313799,10.51992 -0.34095,0.19787 -0.806987,-0.11087 -1.11139,-0.36817 -0.621773,-0.52557 -0.600985,-2.27252 -0.655558,-2.79065 -0.511188,-10.25265 -1.22279,-20.49325 -1.750105,-30.74498 -0.535548,-6.22883 -0.639328,-8.47884 -1.535657,-14.68463 -1.289601,-8.92862 -3.314716,-17.74464 -6.205842,-26.23579 -2.578703,-7.55629 -5.4425,-15.03601 -9.927005,-21.565069 0,0 9.608412,-6.107251 9.608412,-6.107251 z"
       inkscape:connector-curvature="0"
       style="stroke-width:0.2738215" />
    <path
       id="path102"
       d="m 131.69568,177.34326 c -2.46153,-9.33289 -5.42494,-18.51691 -8.15336,-27.76712 -4.22134,-14.19786 -7.66064,-28.63593 -9.71353,-43.36983 -0.12087,-4.52942 -1.50283,-9.727319 0.12986,-14.163476 0.74577,-2.026326 1.46193,-2.460268 2.87957,-3.945802 8.83734,-7.108284 15.23733,-10.250091 25.18887,-11.915903 5.06039,-0.64074 10.15672,-0.817871 15.23416,-1.24374 5.54251,-0.42111 11.09147,-0.730084 16.64216,-0.996622 0,0 -10.50488,8.184985 -10.50488,8.184985 v 0 c -5.52039,0.190056 -11.03872,0.472363 -16.54198,0.985642 -5.10509,0.422276 -10.22233,0.755655 -15.30327,1.44541 -2.43332,0.445645 -4.82812,0.93151 -7.17022,1.791187 -0.79824,0.293001 -3.05778,1.487146 -2.35847,0.983685 1.14607,-0.825093 13.93301,-8.87166 6.95167,-4.474491 -1.24814,1.000896 -2.39831,1.692756 -3.18388,3.201382 -2.05024,3.937311 -0.80758,9.748993 -0.88979,13.950143 1.60243,14.76759 4.93086,29.20209 9.37015,43.29506 2.85958,9.15233 5.91929,18.22424 9.1743,27.22576 0,0 -11.75136,6.81373 -11.75136,6.81373 z"
       inkscape:connector-curvature="0"
       style="stroke-width:0.32555959" />
    <path
       id="path104"
       d="m 137.22659,122.25272 c 6.05412,0.29893 12.04282,0.95903 18.04811,1.61388 4.56383,0.59566 9.14181,1.11355 13.7352,1.54988 0,0 -11.52807,6.30608 -11.52807,6.30608 v 0 c -4.52743,-0.51783 -9.042,-1.09531 -13.56208,-1.64991 -6.15044,-0.6551 -12.29729,-1.14915 -18.5017,-1.34691 0,0 11.80854,-6.47302 11.80854,-6.47302 z"
       inkscape:connector-curvature="0"
       style="stroke-width:0.30063197" />
    <ellipse
       id="path252"
       cx="105.83333"
       cy="239.9256"
       rx="101.29762"
       ry="14.741072"
       style="stroke-width:0.26458332;fill:#ff7f2a" />
    <path
       style="fill:#ff7f2a;stroke-width:0.75595242"
       d="M 81.264881,254.61057 C 43.211898,253.07496 11.927438,247.88829 4.7247022,242.51353 -7.7353899,233.21566 32.200469,226.19684 94.872023,225.13093 c 51.141407,-0.86981 96.821727,3.65987 109.089737,10.81737 2.86732,1.67287 3.22862,2.18072 3.02381,4.25027 -0.19183,1.93841 -0.82886,2.64628 -3.63438,4.03852 -15.23861,7.56217 -72.07651,12.3916 -122.086309,10.37348 z"
       id="path254"
       inkscape:connector-curvature="0"
       sodipodi:nodetypes="ssscsss" />
    <path
       sodipodi:nodetypes="ssscsss"
       inkscape:connector-curvature="0"
       id="path287"
       d="M 81.264881,254.61057 C 43.211898,253.07496 11.927438,247.88829 4.7247022,242.51353 -7.7353899,233.21566 32.200469,226.19684 94.872023,225.13093 c 51.141407,-0.86981 96.821727,3.65987 109.089737,10.81737 2.86732,1.67287 3.22862,2.18072 3.02381,4.25027 -0.19183,1.93841 -0.82886,2.64628 -3.63438,4.03852 -15.23861,7.56217 -72.07651,12.3916 -122.086309,10.37348 z"
       style="fill:#ff7f2a;stroke-width:0.75595242" />
    <path
       sodipodi:nodetypes="ssscsss"
       inkscape:connector-curvature="0"
       id="path287-6"
       d="m 79.949779,54.615417 c -38.05298,-1.53561 -69.354174,-6.69993 -76.5401784,-12.09704 -12.329548,-9.26021 138.7162394,14.34723 97.7068494,-16.62665 -40.815231,-30.8272179 89.2622,2.90392 101.53021,10.06142 2.86732,1.67287 3.22862,2.18072 3.02381,4.25027 -0.19183,1.93841 -0.82886,2.64628 -3.63438,4.03852 -15.23861,7.56217 -72.07651,12.3916 -122.086311,10.37348 z"
       style="fill:#ff7f2a;stroke-width:0.75595242" />
    <flowRoot
       xml:space="preserve"
       id="flowRoot6285"
       style="fill:black;fill-opacity:1;stroke:none;font-family:sans-serif;font-style:normal;font-weight:normal;font-size:40px;line-height:1.25;letter-spacing:0px;word-spacing:0px"><flowRegion
         id="flowRegion6287"><rect
           id="rect6289"
           width="22.857151"
           height="65.714294"
           x="237.14285"
           y="219.66254" /></flowRegion><flowPara
         id="flowPara6291"></flowPara></flowRoot>  </g>
</svg>
